<?xml version="1.0" encoding="UTF-8"?>
<svg version="1.1" xmlns="http://www.w3.org/2000/svg" width="736" height="736">
<path d="M0 0 C242.88 0 485.76 0 736 0 C736 242.88 736 485.76 736 736 C493.12 736 250.24 736 0 736 C0 493.12 0 250.24 0 0 Z " fill="#E9E6DD" transform="translate(0,0)"/>
<path d="M0 0 C3.92024052 0.01076317 7.84002681 0.00002158 11.76025391 -0.01269531 C52.4313714 -0.03539287 52.4313714 -0.03539287 62.60009766 7.51074219 C67.58077041 12.85585441 68.62604015 18.15437418 68.59619141 25.28417969 C68.60143326 26.02979156 68.60667511 26.77540344 68.61207581 27.54360962 C68.61846183 29.11174279 68.61720361 30.67992407 68.60864258 32.24804688 C68.60014342 34.62295579 68.62891994 36.99544578 68.66064453 39.37011719 C68.70283353 48.54357146 68.42171305 56.5005544 62.03759766 63.63574219 C46.81568898 72.2394297 25.63889684 70.57265808 8.72680664 70.46655273 C5.73070689 70.4482764 2.73491943 70.44604442 -0.26123047 70.44628906 C-9.97726324 70.4290921 -19.67740129 70.26051265 -29.38427734 69.82714844 C-30.23787338 69.79074753 -31.09146942 69.75434662 -31.97093201 69.71684265 C-41.28974929 69.25058947 -51.87881163 68.10787915 -58.83740234 61.26074219 C-63.26950685 53.40256056 -63.43470866 44.9630306 -63.30395508 36.19848633 C-63.27479596 34.06546022 -63.28342894 31.93490159 -63.29638672 29.80175781 C-63.27183084 13.89719589 -63.27183084 13.89719589 -57.71240234 8.01074219 C-51.09706331 3.98401408 -44.85362614 1.63978899 -37.13427734 1.02636719 C-35.86931427 0.91376556 -35.86931427 0.91376556 -34.57879639 0.79888916 C-23.07623871 -0.10627796 -11.53042426 -0.037648 0 0 Z " fill="#1B1A1A" transform="translate(590.83740234375,332.7392578125)"/>
<path d="M0 0 C12.54 0 25.08 0 38 0 C38 8.58 38 17.16 38 26 C55.16 26 72.32 26 90 26 C90 17.42 90 8.84 90 0 C102.87 0 115.74 0 129 0 C129 22.11 129 44.22 129 67 C116.13 67 103.26 67 90 67 C90 58.09 90 49.18 90 40 C72.84 40 55.68 40 38 40 C38 48.58 38 57.16 38 66 C25.46 66 12.92 66 0 66 C0 44.22 0 22.44 0 0 Z " fill="#191918" transform="translate(258,335)"/>
<path d="M0 0 C12.87 0 25.74 0 39 0 C39.06907741 6.95635071 39.12875129 13.91149883 39.16479492 20.86791992 C39.17982941 23.23156784 39.20026242 25.59518811 39.22631836 27.95874023 C39.26293645 31.36709441 39.27978031 34.77507792 39.29296875 38.18359375 C39.30845261 39.23083115 39.32393646 40.27806854 39.33988953 41.35704041 C39.34138439 47.95654447 39.17653886 55.35210127 34.61857605 60.58641052 C20.96916634 72.43774249 -3.89878204 69.1865892 -20.83764648 69.18530273 C-24.03187602 69.18747913 -27.22575352 69.20566821 -30.41992188 69.22460938 C-40.55170881 69.25268069 -50.59123607 69.04251466 -60.68359375 68.09765625 C-61.96629906 67.97791695 -61.96629906 67.97791695 -63.2749176 67.85575867 C-70.73145989 67.07395734 -77.72061961 65.85432759 -83 60.125 C-88.67221557 51.26216317 -87 45.4414018 -87 34 C-74.13 34 -61.26 34 -48 34 C-47.505 39.94 -47.505 39.94 -47 46 C-43.80559597 51.32400672 -41.8662653 52.86915753 -36.05932617 54.56762695 C-27.22382893 56.42271475 -15.44858979 56.00712518 -7 53 C-4.34380635 50.78650529 -2.54030258 49.08060516 -1 46 C-0.88213309 44.51987176 -0.82307062 43.03483534 -0.79467773 41.55029297 C-0.77473251 40.62948944 -0.75478729 39.70868591 -0.73423767 38.75997925 C-0.71752518 37.76410797 -0.70081268 36.76823669 -0.68359375 35.7421875 C-0.6524221 34.21490524 -0.6524221 34.21490524 -0.62062073 32.6567688 C-0.55510534 29.39624945 -0.49623098 26.13564794 -0.4375 22.875 C-0.39431668 20.66796017 -0.35070245 18.46092872 -0.30664062 16.25390625 C-0.19860904 10.83602058 -0.09955024 5.41807479 0 0 Z " fill="#1C1B1B" transform="translate(164,334)"/>
<path d="M0 0 C5.40755017 -0.17395612 10.8134482 -0.30049016 16.22314453 -0.38452148 C18.06034742 -0.41957274 19.89735716 -0.46723026 21.73388672 -0.52807617 C38.97636295 -1.08473778 38.97636295 -1.08473778 43.8359375 3.11328125 C44.92989437 4.37587116 45.98705061 5.67153907 47 7 C48.12434528 8.1309496 49.26225384 9.24859553 50.4140625 10.3515625 C51.48703871 11.44008909 52.55738337 12.53121629 53.625 13.625 C57.57914796 17.67465878 61.59464027 21.44131601 66 25 C69.03872143 23.63154975 71.23033446 22.05830686 73.64453125 19.76953125 C74.66063477 18.81143555 74.66063477 18.81143555 75.69726562 17.83398438 C76.74430664 16.83334961 76.74430664 16.83334961 77.8125 15.8125 C78.49892578 15.16474609 79.18535156 14.51699219 79.89257812 13.84960938 C83.86065939 10.09175758 87.74885579 6.27005554 91.5612793 2.35424805 C95.05497563 -0.93432035 99.22354689 -0.12523408 103.7265625 -0.09765625 C105.02078629 -0.09553383 105.02078629 -0.09553383 106.34115601 -0.09336853 C109.1024723 -0.08776188 111.86370812 -0.07520827 114.625 -0.0625 C116.4947905 -0.05748586 118.36458226 -0.0529228 120.234375 -0.04882812 C124.82294777 -0.03779029 129.41146023 -0.0205212 134 0 C134 0.66 134 1.32 134 2 C132.56640625 3.41015625 132.56640625 3.41015625 130.5625 5.0625 C126.41038212 8.57070655 122.64192767 12.35450405 118.8828125 16.27734375 C117 18 117 18 115 18 C114.505 19.485 114.505 19.485 114 21 C112.57421875 22.40234375 112.57421875 22.40234375 110.6875 23.9375 C106.33900246 27.6121763 102.36073752 31.5763531 98.3894043 35.64819336 C97.90769775 36.13811768 97.42599121 36.62804199 96.9296875 37.1328125 C96.4538623 37.62273682 95.97803711 38.11266113 95.48779297 38.61743164 C94 40 94 40 90.6875 42.19140625 C86.68913691 46.36992814 87.11217631 50.23718772 87.125 55.8125 C87.08375 59.174375 87.0425 62.53625 87 66 C73.8 66 60.6 66 47 66 C47.103125 62.7825 47.20625 59.565 47.3125 56.25 C47.22546419 50.71961755 47.12761337 45.68657602 43.42578125 41.3203125 C40.73584527 38.72671145 37.77322964 36.51244735 34.74560547 34.32958984 C31.95990392 32.20778136 29.60190124 29.7136194 27.1875 27.1875 C23.55148729 23.50933062 19.83588101 20.03795988 15.90234375 16.68359375 C13.10199952 14.20526035 10.51565989 11.52832115 7.8984375 8.859375 C6.16706321 7.1636257 4.39258257 5.63551191 2.5 4.125 C1.675 3.42375 0.85 2.7225 0 2 C0 1.34 0 0.68 0 0 Z " fill="#1A1A19" transform="translate(391,335)"/>
<path d="M0 0 C12.87 0 25.74 0 39 0 C39 22.11 39 44.22 39 67 C26.13 67 13.26 67 0 67 C0 58.09 0 49.18 0 40 C-17.16 40 -34.32 40 -52 40 C-52 39.67 -52 39.34 -52 39 C-34.51 39 -17.02 39 1 39 C1.33 36.03 1.66 33.06 2 30 C1.34 30 0.68 30 0 30 C0 29.01 0 28.02 0 27 C-16.83 27 -33.66 27 -51 27 C-51 26.67 -51 26.34 -51 26 C-34.17 26 -17.34 26 0 26 C0 17.42 0 8.84 0 0 Z " fill="#1F1E1E" transform="translate(348,335)"/>
<path d="M0 0 C12.54 0 25.08 0 38 0 C38 22.44 38 44.88 38 68 C25.46 68 12.92 68 0 68 C0 45.56 0 23.12 0 0 Z " fill="#1A1A1A" transform="translate(211,334)"/>
<path d="M0 0 C4.25916015 4.39655242 3.15917362 10.57286681 3.1875 16.3125 C3.208125 17.34568359 3.22875 18.37886719 3.25 19.44335938 C3.28328853 25.93046201 2.92815986 30.77928939 -1.6875 35.75 C-8.48870401 39.32958106 -16.41532581 39.38803557 -23.9375 39.375 C-24.90405518 39.37338867 -25.87061035 39.37177734 -26.86645508 39.37011719 C-33.64696296 39.25347804 -40.23418484 38.83037345 -46.0625 35 C-50.9263905 29.43490789 -50.27801331 23.64304062 -50.3125 16.625 C-50.333125 15.5834375 -50.35375 14.541875 -50.375 13.46875 C-50.42445077 3.80112452 -50.42445077 3.80112452 -47.0625 0 C-36.59279831 -9.39317994 -11.05665625 -7.22067347 0 0 Z " fill="#ECE7DF" transform="translate(617.0625,351)"/>
<path d="M0 0 C0.70125 0.185625 1.4025 0.37125 2.125 0.5625 C5.33888698 1.05156976 7.83560336 0.66231558 11 0 C11 0.66 11 1.32 11 2 C17.61898609 3.14319208 24.23318404 3.3300024 30.9375 3.5625 C32.67870117 3.62727539 32.67870117 3.62727539 34.45507812 3.69335938 C37.30328232 3.79884842 40.15156529 3.90096555 43 4 C43 4.33 43 4.66 43 5 C30.46 5.33 17.92 5.66 5 6 C4.67 27.78 4.34 49.56 4 72 C3.67 72 3.34 72 3 72 C2.505 67.545 2.505 67.545 2 63 C1.01 63.495 1.01 63.495 0 64 C-0.46651207 66.12576782 -0.46651207 66.12576782 -0.625 68.5625 C-0.69976562 69.38878906 -0.77453125 70.21507812 -0.8515625 71.06640625 C-0.90054688 71.70449219 -0.94953125 72.34257812 -1 73 C-5.54552357 74.75857606 -9.28656852 75.23686694 -14.1484375 75.1953125 C-14.80582916 75.1924826 -15.46322083 75.18965271 -16.14053345 75.18673706 C-18.21888233 75.17563447 -20.29678366 75.15054986 -22.375 75.125 C-23.79296248 75.11495731 -25.21093179 75.10583373 -26.62890625 75.09765625 C-30.08608037 75.07572805 -33.54299642 75.04126818 -37 75 C-37 75.66 -37 76.32 -37 77 C-37.66 77 -38.32 77 -39 77 C-39.33 76.34 -39.66 75.68 -40 75 C-40.99 74.67 -41.98 74.34 -43 74 C-42.505 73.01 -42.505 73.01 -42 72 C-29.46 72 -16.92 72 -4 72 C-3.67 49.89 -3.34 27.78 -3 5 C-2.34 5 -1.68 5 -1 5 C-0.67 3.35 -0.34 1.7 0 0 Z " fill="#F8F6EC" transform="translate(253,329)"/>
<path d="M0 0 C12.54 0 25.08 0 38 0 C38 22.44 38 44.88 38 68 C25.46 68 12.92 68 0 68 C0 45.56 0 23.12 0 0 Z M2 2 C1.97700414 9.82881305 1.95710233 17.65750817 1.94506836 25.48632812 C1.94061637 28.14780621 1.93323357 30.80923013 1.92456055 33.47070312 C1.91238646 37.30339232 1.90674682 41.13604495 1.90234375 44.96875 C1.89718246 46.15239136 1.89202118 47.33603271 1.88670349 48.55554199 C1.88662796 49.67609985 1.88655243 50.79665771 1.88647461 51.95117188 C1.884254 52.92824097 1.88203339 53.90531006 1.87974548 54.9119873 C2.0242998 58.62399383 2.53923327 62.31386619 3 66 C14.22 66 25.44 66 37 66 C37 44.88 37 23.76 37 2 C25.45 2 13.9 2 2 2 Z " fill="#312E2C" transform="translate(211,334)"/>
<path d="M0 0 C0.33 0 0.66 0 1 0 C1.97444423 7.85239642 2.3274302 15.6570436 2.60546875 23.56054688 C2.76860133 27.79918122 2.94452318 31.98987955 3.515625 36.1953125 C4.03345311 40.26276878 4.21907133 44.21831714 4.25 48.3125 C4.270625 49.01439453 4.29125 49.71628906 4.3125 50.43945312 C4.35098228 55.48544264 4.35098228 55.48544264 2.734375 57.85546875 C-1.76102391 60.82202704 -4.81703208 61.23095089 -10.28515625 61.16015625 C-10.98265488 61.15495468 -11.6801535 61.14975311 -12.39878845 61.14439392 C-14.62024089 61.126632 -16.84122528 61.09546659 -19.0625 61.0625 C-21.28729906 61.0348493 -23.51203152 61.01014307 -25.73692322 60.99131775 C-27.75315073 60.9734918 -29.76928676 60.94608773 -31.78540039 60.91821289 C-35.01843847 60.84392588 -35.01843847 60.84392588 -38 62 C-38.33 60.68 -38.66 59.36 -39 58 C-26.13 58 -13.26 58 0 58 C0 38.86 0 19.72 0 0 Z " fill="#F9F7F2" transform="translate(387,344)"/>
<path d="M0 0 C0.5775 0.680625 1.155 1.36125 1.75 2.0625 C2.86375 3.0215625 2.86375 3.0215625 4 4 C6.21858253 3.86358623 6.21858253 3.86358623 8 3 C8 3.66 8 4.32 8 5 C19.88 5 31.76 5 44 5 C44 5.33 44 5.66 44 6 C31.79 6 19.58 6 7 6 C7 25.14 7 44.28 7 64 C6.67 64 6.34 64 6 64 C5.12168135 57.23785817 4.86651426 50.65419372 4.90234375 43.83984375 C4.9037587 42.80936417 4.90517365 41.77888458 4.90663147 40.71717834 C4.91218553 37.45725481 4.9247293 34.19740243 4.9375 30.9375 C4.94252094 28.71419371 4.94708281 26.49088633 4.95117188 24.26757812 C4.96213987 18.8450282 4.9788316 13.42251919 5 8 C4.34 7.67 3.68 7.34 3 7 C2.18172879 12.96117357 1.92359471 18.85809433 1.97265625 24.87109375 C1.97816498 25.56522369 1.98367371 26.25935364 1.98934937 26.97451782 C2.01703494 29.86685313 2.05224781 32.75898478 2.09594727 35.65112305 C2.12606949 37.786955 2.14387275 39.92261798 2.16015625 42.05859375 C2.17699463 43.31986084 2.19383301 44.58112793 2.21118164 45.88061523 C2 49 2 49 0 52 C-0.33 37.15 -0.66 22.3 -1 7 C-19.315 6.505 -19.315 6.505 -38 6 C-38 5.67 -38 5.34 -38 5 C-26.12 4.67 -14.24 4.34 -2 4 C-1.67 3.01 -1.34 2.02 -1 1 C-0.67 0.67 -0.34 0.34 0 0 Z " fill="#FBF9F2" transform="translate(204,328)"/>
<path d="M0 0 C12.54 0 25.08 0 38 0 C38.04125 3.898125 38.0825 7.79625 38.125 11.8125 C38.14320801 13.03815674 38.16141602 14.26381348 38.18017578 15.52661133 C38.1851709 16.4936499 38.19016602 17.46068848 38.1953125 18.45703125 C38.21102295 19.9416687 38.21102295 19.9416687 38.22705078 21.45629883 C38 24 38 24 36 27 C36 18.42 36 9.84 36 1 C34.02 1.33 32.04 1.66 30 2 C21.09 2 12.18 2 3 2 C2.67 20.15 2.34 38.3 2 57 C1.01 57.495 1.01 57.495 0 58 C0 38.86 0 19.72 0 0 Z " fill="#0D0D08" transform="translate(258,335)"/>
<path d="M0 0 C0 0.33 0 0.66 0 1 C-12.54 1 -25.08 1 -38 1 C-34.51255856 5.87727471 -34.51255856 5.87727471 -31 8 C-30.3125 10.125 -30.3125 10.125 -30 12 C-30.99 12 -31.98 12 -33 12 C-33 11.34 -33 10.68 -33 10 C-33.99 10.33 -34.98 10.66 -36 11 C-36.66 10.67 -37.32 10.34 -38 10 C-38.33 12.64 -38.66 15.28 -39 18 C-39.66 18 -40.32 18 -41 18 C-41.85617989 12.11376326 -42 7.12321914 -42 1 C-54.87 1 -67.74 1 -81 1 C-81 0.67 -81 0.34 -81 0 C-53.95778831 -1.12389175 -27.04859075 -0.81813639 0 0 Z " fill="#BCB9B4" transform="translate(429,334)"/>
<path d="M0 0 C0.99 0 1.98 0 3 0 C3.495 1.98 3.495 1.98 4 4 C3.34 4 2.68 4 2 4 C2.05220703 5.77117187 2.05220703 5.77117187 2.10546875 7.578125 C2.13361232 9.13540242 2.16091187 10.69269525 2.1875 12.25 C2.21263672 13.02730469 2.23777344 13.80460937 2.26367188 14.60546875 C2.33834499 20.42997175 2.33834499 20.42997175 0.48828125 23.546875 C-0.00285156 24.02640625 -0.49398437 24.5059375 -1 25 C-1.99 24.67 -2.98 24.34 -4 24 C-4.495 25.485 -4.495 25.485 -5 27 C-5.495 26.01 -5.495 26.01 -6 25 C-7.43835205 25.00785522 -7.43835205 25.00785522 -8.90576172 25.01586914 C-12.45783559 25.03394679 -16.00990537 25.04544215 -19.56201172 25.05493164 C-21.10043013 25.05996552 -22.63884375 25.06679308 -24.17724609 25.07543945 C-26.38640526 25.08754639 -28.59550126 25.09323769 -30.8046875 25.09765625 C-31.83914505 25.10539818 -31.83914505 25.10539818 -32.89450073 25.11329651 C-37.77225659 25.11387171 -37.77225659 25.11387171 -40 24 C-40 23.34 -40 22.68 -40 22 C-26.8 22 -13.6 22 0 22 C0 14.74 0 7.48 0 0 Z " fill="#F3F2EA" transform="translate(478,380)"/>
<path d="M0 0 C1.1713147 -0.00637985 2.34262939 -0.0127597 3.54943848 -0.01933289 C5.44792542 -0.02100212 5.44792542 -0.02100212 7.38476562 -0.02270508 C8.68297241 -0.02603348 9.9811792 -0.02936188 11.31872559 -0.03279114 C14.06584505 -0.03877626 16.81293307 -0.04063161 19.56005859 -0.04003906 C23.08082993 -0.03993733 26.60140011 -0.05360389 30.12212372 -0.07081127 C33.4805076 -0.08459734 36.83885378 -0.08401968 40.19726562 -0.08520508 C42.09575256 -0.09598335 42.09575256 -0.09598335 44.03259277 -0.10697937 C45.78956482 -0.10236443 45.78956482 -0.10236443 47.58203125 -0.09765625 C49.13065857 -0.09979378 49.13065857 -0.09979378 50.71057129 -0.10197449 C53.29101562 0.14526367 53.29101562 0.14526367 56.29101562 2.14526367 C49.55073983 2.28960823 42.81042052 2.43177661 36.07006836 2.57250977 C33.78229764 2.62052411 31.49453691 2.66901668 29.20678711 2.71801758 C25.89764922 2.788809 22.58848492 2.85810861 19.27929688 2.92651367 C17.68445969 2.95986816 17.68445969 2.95986816 16.05740356 2.99389648 C9.51469754 3.12342321 2.9837338 3.17559723 -3.55981445 3.06518555 C-5.76080229 2.99883921 -5.76080229 2.99883921 -7.70898438 4.14526367 C-8.03898438 3.15526367 -8.36898437 2.16526367 -8.70898438 1.14526367 C-5.55353714 0.09344793 -3.31339256 0.0122334 0 0 Z " fill="#21201D" transform="translate(570.708984375,332.854736328125)"/>
<path d="M0 0 C0 0.99 0 1.98 0 3 C0.33 2.01 0.66 1.02 1 0 C4.39914975 1.13304992 5.05254451 2.12518475 7 5 C5.75 6.5625 5.75 6.5625 4 8 C1.8125 7.6875 1.8125 7.6875 0 7 C0 6.01 0 5.02 0 4 C-0.33 4.66 -0.66 5.32 -1 6 C-1.99 6 -2.98 6 -4 6 C-4.309375 6.61875 -4.61875 7.2375 -4.9375 7.875 C-5.625 9.25 -6.3125 10.625 -7 12 C-7.66 12 -8.32 12 -9 12 C-9.33 12.99 -9.66 13.98 -10 15 C-12.06640625 15.94921875 -12.06640625 15.94921875 -14.5625 16.6875 C-15.38878906 16.93886719 -16.21507812 17.19023437 -17.06640625 17.44921875 C-17.70449219 17.63097656 -18.34257812 17.81273437 -19 18 C-17.68904236 15.10261071 -16.28539071 13.03715911 -14.03125 10.80078125 C-13.46019531 10.23166016 -12.88914062 9.66253906 -12.30078125 9.07617188 C-11.70652344 8.49416016 -11.11226562 7.91214844 -10.5 7.3125 C-9.90574219 6.71888672 -9.31148437 6.12527344 -8.69921875 5.51367188 C-3.12896415 0 -3.12896415 0 0 0 Z " fill="#F2EEDF" transform="translate(527,336)"/>
<path d="M0 0 C1.05574219 0.10828125 1.05574219 0.10828125 2.1328125 0.21875 C10.07451829 0.96522887 18.0238304 1.38686129 26 1 C26.33 0.67 26.66 0.34 27 0 C28.51928038 -0.07179964 30.04167482 -0.08392007 31.5625 -0.0625 C32.38878906 -0.05347656 33.21507812 -0.04445313 34.06640625 -0.03515625 C34.70449219 -0.02355469 35.34257813 -0.01195312 36 0 C35.34 1.32 34.68 2.64 34 4 C17.17 4 0.34 4 -17 4 C-17 3.67 -17 3.34 -17 3 C-8.585 2.505 -8.585 2.505 0 2 C0 1.34 0 0.68 0 0 Z " fill="#F9F8F0" transform="translate(574,329)"/>
<path d="M0 0 C2 4 2 4 2 21 C-11.2 21 -24.4 21 -38 21 C-38 15.39 -38 9.78 -38 4 C-37.34 3.67 -36.68 3.34 -36 3 C-36 8.28 -36 13.56 -36 19 C-24.78 19 -13.56 19 -2 19 C-1.04425629 15.17702516 -0.92941008 12.2839168 -1 8.375 C-1.11062907 2.22125813 -1.11062907 2.22125813 0 0 Z " fill="#0A0A07" transform="translate(476,380)"/>
<path d="M0 0 C18.81 0 37.62 0 57 0 C57 0.33 57 0.66 57 1 C53.37 1.33 49.74 1.66 46 2 C46 2.33 46 2.66 46 3 C30.59519765 3.36678101 15.34946421 2.23346838 0 1 C0 0.67 0 0.34 0 0 Z " fill="#F9F7F0" transform="translate(116,403)"/>
<path d="M0 0 C1.32 0.66 2.64 1.32 4 2 C3.3125 4.4375 3.3125 4.4375 2 7 C0.33871537 7.35919668 -1.32900023 7.68911632 -3 8 C-4.70884005 9.62339805 -6.37446717 11.29319053 -8 13 C-9.63377642 14.05287814 -11.29181597 15.0727001 -13 16 C-13.99 15.34 -14.98 14.68 -16 14 C-14.25612361 12.20200331 -12.50541018 10.41167703 -10.75 8.625 C-10.25886719 8.11710937 -9.76773437 7.60921875 -9.26171875 7.0859375 C-6.67931995 4.46910671 -4.40532674 2.4214896 -1 1 C-0.67 0.67 -0.34 0.34 0 0 Z " fill="#F3F0E9" transform="translate(500,361)"/>
<path d="M0 0 C0.66 0.33 1.32 0.66 2 1 C4.77160626 1.08683445 7.51774765 1.1155579 10.2890625 1.09765625 C11.10748627 1.0962413 11.92591003 1.09482635 12.76913452 1.09336853 C15.38779325 1.0877629 18.00636704 1.07520948 20.625 1.0625 C22.39843627 1.05748572 24.17187387 1.05292269 25.9453125 1.04882812 C30.29690782 1.03779164 34.6484395 1.02052325 39 1 C39 1.33 39 1.66 39 2 C27.12 2 15.24 2 3 2 C3 10.58 3 19.16 3 28 C2.67 28 2.34 28 2 28 C1.67 22.39 1.34 16.78 1 11 C0.34 11 -0.32 11 -1 11 C-0.67 7.37 -0.34 3.74 0 0 Z " fill="#FDFCF7" transform="translate(345,332)"/>
<path d="M0 0 C1.64510941 0.00015915 3.29022379 0.00585551 4.93530273 0.01586914 C6.23164894 0.01799156 6.23164894 0.01799156 7.55418396 0.02015686 C10.32578941 0.025773 13.09731528 0.0383282 15.86889648 0.05102539 C17.74324428 0.05603831 19.61759334 0.06060158 21.49194336 0.06469727 C26.09679192 0.07574767 30.70158069 0.09302309 35.30639648 0.11352539 C35.30639648 2.11352539 35.30639648 2.11352539 33.88061523 3.65649414 C33.25799805 4.19918945 32.63538086 4.74188477 31.99389648 5.30102539 C31.37901367 5.85145508 30.76413086 6.40188477 30.13061523 6.96899414 C29.52862305 7.34668945 28.92663086 7.72438477 28.30639648 8.11352539 C27.31639648 7.78352539 26.32639648 7.45352539 25.30639648 7.11352539 C24.97639648 6.12352539 24.64639648 5.13352539 24.30639648 4.11352539 C21.79660301 1.60373192 16.81368915 1.94933861 13.44311523 1.79711914 C12.11376953 1.73427734 12.11376953 1.73427734 10.75756836 1.67016602 C9.84555664 1.63084961 8.93354492 1.5915332 7.99389648 1.55102539 C7.06254883 1.5078418 6.13120117 1.4646582 5.17163086 1.42016602 C2.88335194 1.31455314 0.59497276 1.21244787 -1.69360352 1.11352539 C-2.02360352 2.43352539 -2.35360352 3.75352539 -2.69360352 5.11352539 C-3.35360352 3.79352539 -4.01360352 2.47352539 -4.69360352 1.11352539 C-3.69360352 0.11352539 -3.69360352 0.11352539 0 0 Z " fill="#040302" transform="translate(489.693603515625,334.886474609375)"/>
<path d="M0 0 C1.65 0 3.3 0 5 0 C4.01 1.485 4.01 1.485 3 3 C2.63488665 5.36095036 2.63488665 5.36095036 2.58935547 8.0222168 C2.54946503 9.04304855 2.50957458 10.06388031 2.46847534 11.11564636 C2.41833786 12.76576469 2.41833786 12.76576469 2.3671875 14.44921875 C2.32562531 15.5769722 2.28406311 16.70472565 2.24124146 17.86665344 C2.11034988 21.47335171 1.99252819 25.08034392 1.875 28.6875 C1.78861998 31.13088991 1.70139108 33.57424998 1.61328125 36.01757812 C1.39899805 42.01140699 1.19544749 48.00552899 1 54 C0.67 54 0.34 54 0 54 C0 36.18 0 18.36 0 0 Z " fill="#10100D" transform="translate(213,336)"/>
<path d="M0 0 C12.87 0 25.74 0 39 0 C35.26034036 2.49310643 33.70929359 2.0603261 29.3125 1.625 C28.13300781 1.51414062 26.95351563 1.40328125 25.73828125 1.2890625 C24.83464844 1.19367188 23.93101562 1.09828125 23 1 C23 1.66 23 2.32 23 3 C12.605 3.495 12.605 3.495 2 4 C1.34 2.68 0.68 1.36 0 0 Z " fill="#F8F6F0" transform="translate(257,402)"/>
<path d="M0 0 C0.66 0.33 1.32 0.66 2 1 C1.42424336 4.35250701 0.40693737 5.93818629 -2.0625 8.25 C-2.61035156 8.77078125 -3.15820312 9.2915625 -3.72265625 9.828125 C-4.14417969 10.21484375 -4.56570313 10.6015625 -5 11 C-7.84383123 9.7251791 -10.13754018 8.54862922 -12 6 C-11.6875 3.8125 -11.6875 3.8125 -11 2 C-10.278125 2.20625 -9.55625 2.4125 -8.8125 2.625 C-5.53204951 3.0623934 -3.92475177 2.46237588 -1 1 C-0.67 0.67 -0.34 0.34 0 0 Z " fill="#F5F4E8" transform="translate(464,350)"/>
<path d="M0 0 C0.66 0.33 1.32 0.66 2 1 C2.0493651 5.94790177 2.08570269 10.89566083 2.10986328 15.84375 C2.11993317 17.52769466 2.13358988 19.21162179 2.15087891 20.89550781 C2.17508426 23.31319501 2.18647296 25.73065143 2.1953125 28.1484375 C2.20563507 28.9036972 2.21595764 29.65895691 2.22659302 30.43710327 C2.22699318 32.2929398 2.12222716 34.1481928 2 36 C1.34 36.66 0.68 37.32 0 38 C-0.02505615 36.95021973 -0.0501123 35.90043945 -0.07592773 34.81884766 C-0.16996267 30.93118676 -0.2701928 27.04370619 -0.37231445 23.15625 C-0.41567817 21.47237358 -0.4573522 19.78845277 -0.49731445 18.10449219 C-0.55498234 15.68671276 -0.6186865 13.26915705 -0.68359375 10.8515625 C-0.70030624 10.0963028 -0.71701874 9.34104309 -0.73423767 8.56289673 C-0.77555107 4.65260201 -0.77555107 4.65260201 -2 1 C-1.34 0.67 -0.68 0.34 0 0 Z " fill="#2E2D2A" transform="translate(657,349)"/>
<path d="M0 0 C0.66 1.32 1.32 2.64 2 4 C0.14279665 6.01948325 -1.73275086 8.01380942 -3.625 10 C-4.14707031 10.57234375 -4.66914063 11.1446875 -5.20703125 11.734375 C-9.23937948 15.91606946 -9.23937948 15.91606946 -13.3984375 16.375 C-14.25695312 16.25125 -15.11546875 16.1275 -16 16 C-16 15.01 -16 14.02 -16 13 C-15.1028125 12.87625 -15.1028125 12.87625 -14.1875 12.75 C-11.400657 11.79451097 -10.67123014 10.3549152 -9 8 C-8.34 8 -7.68 8 -7 8 C-6.67 7.01 -6.34 6.02 -6 5 C-5.01 4.67 -4.02 4.34 -3 4 C-1.31461399 2.00334686 -1.31461399 2.00334686 0 0 Z " fill="#F4F2E9" transform="translate(483,332)"/>
<path d="M0 0 C12.87 0 25.74 0 39 0 C38.67 0.66 38.34 1.32 38 2 C28.43 1.67 18.86 1.34 9 1 C7.66666667 4 7.66666667 4 9 7 C4.68381834 7 3.07210341 4.86729652 0 2 C0 1.34 0 0.68 0 0 Z " fill="#020100" transform="translate(391,335)"/>
<path d="M0 0 C0.33 0 0.66 0 1 0 C1.19204288 6.08692443 1.3708004 12.17403675 1.53710938 18.26171875 C1.59560506 20.33376598 1.65776739 22.40571301 1.72363281 24.47753906 C1.81753115 27.45098631 1.8983526 30.42454148 1.9765625 33.3984375 C2.00875885 34.32868744 2.0409552 35.25893738 2.0741272 36.21737671 C2.09429901 37.07811798 2.11447083 37.93885925 2.13525391 38.82568359 C2.15746002 39.58513275 2.17966614 40.34458191 2.20254517 41.12704468 C2 43 2 43 0 45 C-1.18516686 40.32759439 -1.14456559 35.8007106 -1.1328125 31.015625 C-1.13376923 30.15942566 -1.13472595 29.30322632 -1.13571167 28.42108154 C-1.13639008 26.61909918 -1.13455949 24.81711434 -1.13037109 23.01513672 C-1.12499167 20.2457132 -1.13034099 17.47644992 -1.13671875 14.70703125 C-1.13605842 12.95572881 -1.13477821 11.20442646 -1.1328125 9.453125 C-1.13483673 8.62089417 -1.13686096 7.78866333 -1.13894653 6.93121338 C-1.11496818 1.11496818 -1.11496818 1.11496818 0 0 Z " fill="#0F110C" transform="translate(201,341)"/>
<path d="M0 0 C11.22 0 22.44 0 34 0 C34 0.66 34 1.32 34 2 C33.04109863 2.02505615 32.08219727 2.0501123 31.09423828 2.07592773 C27.54201523 2.1699862 23.98998844 2.27021058 20.43798828 2.37231445 C18.89962347 2.41566926 17.36121037 2.45734395 15.82275391 2.49731445 C13.6134586 2.55500398 11.40440652 2.61870179 9.1953125 2.68359375 C8.50567413 2.70030624 7.81603577 2.71701874 7.10549927 2.73423767 C3.42885736 2.80806995 3.42885736 2.80806995 0 4 C0 2.68 0 1.36 0 0 Z " fill="#0C0C0A" transform="translate(79,368)"/>
<path d="M0 0 C1.65 0.33 3.3 0.66 5 1 C4.67 8.26 4.34 15.52 4 23 C3.01 23 2.02 23 1 23 C0.83210783 19.72922836 0.66589762 16.45837336 0.5 13.1875 C0.45230469 12.25873047 0.40460938 11.32996094 0.35546875 10.37304688 C0.31035156 9.48037109 0.26523437 8.58769531 0.21875 7.66796875 C0.17685547 6.84578857 0.13496094 6.0236084 0.09179688 5.17651367 C0.01907502 3.45227071 0 1.72577585 0 0 Z " fill="#F8F5EF" transform="translate(433,379)"/>
<path d="M0 0 C0.33 0 0.66 0 1 0 C1.90448936 5.42693617 2.16604151 10.8156881 2.25 16.3125 C2.27126953 17.01826172 2.29253906 17.72402344 2.31445312 18.45117188 C2.34863611 23.54443683 2.34863611 23.54443683 0.484375 25.98046875 C-0.00546875 26.31691406 -0.4953125 26.65335937 -1 27 C-2.0391103 23.88266911 -2.05488944 21.96331628 -1.9140625 18.7109375 C-1.87023437 17.68742187 -1.82640625 16.66390625 -1.78125 15.609375 C-1.7296875 14.54203125 -1.678125 13.4746875 -1.625 12.375 C-1.58117187 11.29992187 -1.53734375 10.22484375 -1.4921875 9.1171875 C-1.12909226 1.12909226 -1.12909226 1.12909226 0 0 Z " fill="#F2F0E8" transform="translate(389,376)"/>
<path d="M0 0 C19.8 0.495 19.8 0.495 40 1 C35.71835508 3.14082246 33.74216604 3.2351031 29.046875 3.1953125 C28.38665344 3.1924826 27.72643188 3.18965271 27.04620361 3.18673706 C24.94728103 3.17558415 22.84879258 3.15048946 20.75 3.125 C19.32292285 3.11496384 17.89583898 3.1058391 16.46875 3.09765625 C12.97902672 3.07566111 9.48955577 3.04116536 6 3 C6 3.66 6 4.32 6 5 C5.34 5 4.68 5 4 5 C3.67 4.34 3.34 3.68 3 3 C2.01 2.67 1.02 2.34 0 2 C0 1.34 0 0.68 0 0 Z " fill="#FBF8F2" transform="translate(210,401)"/>
<path d="M0 0 C1.08946678 -0.0049926 1.08946678 -0.0049926 2.20094299 -0.01008606 C3.74015671 -0.015158 5.27938145 -0.0174943 6.81860352 -0.01733398 C9.17808096 -0.01951891 11.53708986 -0.0376669 13.89648438 -0.05664062 C15.38932131 -0.05957477 16.88216048 -0.06155942 18.375 -0.0625 C19.43756264 -0.07327827 19.43756264 -0.07327827 20.52159119 -0.08427429 C25.52508288 -0.06085462 25.52508288 -0.06085462 27.75390625 2.16796875 C21.90265028 3.54671692 16.07834354 3.35399912 10.09643555 3.35327148 C8.06212913 3.35547338 6.02835239 3.37370425 3.99414062 3.39257812 C2.71474609 3.39451172 1.43535156 3.39644531 0.1171875 3.3984375 C-1.05545654 3.40254639 -2.22810059 3.40665527 -3.4362793 3.41088867 C-6.24609375 3.16796875 -6.24609375 3.16796875 -8.24609375 1.16796875 C-6.30565633 -0.77246867 -2.6473564 0.00414702 0 0 Z " fill="#0A0907" transform="translate(584.24609375,388.83203125)"/>
<path d="M0 0 C6.6 0 13.2 0 20 0 C20.33 0.99 20.66 1.98 21 3 C19.7934375 2.9690625 19.7934375 2.9690625 18.5625 2.9375 C16.06645115 2.70366379 16.06645115 2.70366379 15 4 C9.38223003 4.35111062 4.43421134 3.38011717 -1 2 C-0.67 1.34 -0.34 0.68 0 0 Z " fill="#D9D7CF" transform="translate(584,346)"/>
<path d="M0 0 C0.91007813 0.00902344 1.82015625 0.01804687 2.7578125 0.02734375 C3.45648438 0.03894531 4.15515625 0.05054688 4.875 0.0625 C4.545 1.3825 4.215 2.7025 3.875 4.0625 C9.155 4.3925 14.435 4.7225 19.875 5.0625 C19.875 5.3925 19.875 5.7225 19.875 6.0625 C0.87044419 6.61603075 0.87044419 6.61603075 -7.125 3.0625 C-7.125 2.4025 -7.125 1.7425 -7.125 1.0625 C-4.60024538 -0.19987731 -2.81299534 -0.03606404 0 0 Z " fill="#D3D1CA" transform="translate(128.125,383.9375)"/>
<path d="M0 0 C0.66 0.66 1.32 1.32 2 2 C1.01 2 0.02 2 -1 2 C-1.309375 2.61875 -1.61875 3.2375 -1.9375 3.875 C-2.625 5.25 -3.3125 6.625 -4 8 C-4.66 8 -5.32 8 -6 8 C-6.33 8.99 -6.66 9.98 -7 11 C-9.06640625 11.94921875 -9.06640625 11.94921875 -11.5625 12.6875 C-12.80193359 13.06455078 -12.80193359 13.06455078 -14.06640625 13.44921875 C-14.70449219 13.63097656 -15.34257812 13.81273437 -16 14 C-13.61249563 8.85262819 -10.2274162 5.28699459 -5 3 C-3.32665961 2.01120795 -1.65848177 1.01351664 0 0 Z " fill="#F5F2E8" transform="translate(524,340)"/>
<path d="M0 0 C0.99 0.33 1.98 0.66 3 1 C3.33 2.65 3.66 4.3 4 6 C1.03 5.505 1.03 5.505 -2 5 C-2.268125 6.093125 -2.53625 7.18625 -2.8125 8.3125 C-3.87663739 11.61692663 -4.34654664 12.94960422 -7 15 C-7.96684467 11.92367604 -8.21940102 10.48755783 -6.875 7.5 C-4.79777447 4.73036597 -2.51282583 2.3769974 0 0 Z " fill="#141313" transform="translate(475,345)"/>
<path d="M0 0 C2.97 0 5.94 0 9 0 C8.34 1.32 7.68 2.64 7 4 C-4.22 4 -15.44 4 -27 4 C-27 3.67 -27 3.34 -27 3 C-18.42 2.67 -9.84 2.34 -1 2 C-0.67 1.34 -0.34 0.68 0 0 Z " fill="#F1F0E9" transform="translate(601,329)"/>
<path d="M0 0 C0.99 0.33 1.98 0.66 3 1 C2.67 14.53 2.34 28.06 2 42 C1.67 42 1.34 42 1 42 C0.505 21.21 0.505 21.21 0 0 Z " fill="#FCFAF5" transform="translate(658,345)"/>
<path d="M0 0 C0 0.66 0 1.32 0 2 C-8.95736873 4.25330897 -16.90024068 3.90874789 -26 3 C-26 2.67 -26 2.34 -26 2 C-22.79217315 1.661671 -19.58366902 1.33023854 -16.375 1 C-15.47136719 0.90460938 -14.56773437 0.80921875 -13.63671875 0.7109375 C-9.06936961 0.24420109 -4.59882812 -0.12222799 0 0 Z " fill="#E0DDD6" transform="translate(190,400)"/>
<path d="M0 0 C0 2 0 2 -1.42578125 3.54296875 C-2.04839844 4.08566406 -2.67101562 4.62835938 -3.3125 5.1875 C-3.92738281 5.73792969 -4.54226563 6.28835938 -5.17578125 6.85546875 C-5.77777344 7.23316406 -6.37976563 7.61085938 -7 8 C-7.99 7.67 -8.98 7.34 -10 7 C-10.33 6.01 -10.66 5.02 -11 4 C-9 1 -9 1 -7.1875 0.3125 C-4.76407022 -0.03370425 -2.44491162 -0.06791421 0 0 Z " fill="#0D0B09" transform="translate(525,335)"/>
<path d="M0 0 C9.07692308 -0.30769231 9.07692308 -0.30769231 13 2 C14.3125 4.125 14.3125 4.125 15 6 C7.25 5.125 7.25 5.125 5 4 C5 3.34 5 2.68 5 2 C3.35 1.67 1.7 1.34 0 1 C0 0.67 0 0.34 0 0 Z " fill="#12100F" transform="translate(636,336)"/>
<path d="M0 0 C-0.33 1.65 -0.66 3.3 -1 5 C-4.3 5.66 -7.6 6.32 -11 7 C-9.54588235 2.39529412 -9.54588235 2.39529412 -7.1875 0.6875 C-4.68810383 -0.09802451 -2.60506718 -0.14472595 0 0 Z " fill="#11100F" transform="translate(545,337)"/>
<path d="M0 0 C3.63 0.33 7.26 0.66 11 1 C11 1.99 11 2.98 11 4 C8.24921116 4.91692961 6.64051087 5.10886083 3.8125 5.0625 C1.9253125 5.0315625 1.9253125 5.0315625 0 5 C0 3.35 0 1.7 0 0 Z " fill="#EAE7E0" transform="translate(634,330)"/>
<path d="M0 0 C0.33 0 0.66 0 1 0 C1 8.25 1 16.5 1 25 C0.67 25 0.34 25 0 25 C-2.24806338 15.96760248 -2.00853739 9.07428502 0 0 Z " fill="#FBFAF4" transform="translate(347,375)"/>
<path d="M0 0 C0 0.66 0 1.32 0 2 C0.99 2.33 1.98 2.66 3 3 C2.01 4.485 2.01 4.485 1 6 C-2.625 6.6875 -2.625 6.6875 -6 7 C-6.33 5.35 -6.66 3.7 -7 2 C-2.25 0 -2.25 0 0 0 Z " fill="#141413" transform="translate(649,392)"/>
<path d="M0 0 C1.68375165 0.62225605 3.35767228 1.27544365 5 2 C4.67 2.99 4.34 3.98 4 5 C0.24757563 4.48830577 -2.66887742 3.78452996 -6 2 C-6.66 2 -7.32 2 -8 2 C-8 1.34 -8 0.68 -8 0 C-5.08249759 -1.45875121 -3.14485878 -0.67830287 0 0 Z " fill="#141311" transform="translate(123,387)"/>
<path d="M0 0 C0.66 0 1.32 0 2 0 C2 6.27 2 12.54 2 19 C1.34 19.33 0.68 19.66 0 20 C-0.95946595 15.38034912 -0.96102244 11.31870875 -0.5625 6.625 C-0.46066406 5.37976563 -0.35882813 4.13453125 -0.25390625 2.8515625 C-0.17011719 1.91054688 -0.08632813 0.96953125 0 0 Z " fill="#0B0A07" transform="translate(294,376)"/>
<path d="M0 0 C0.66 0 1.32 0 2 0 C2.22114415 2.79119779 2.42743301 5.5821212 2.625 8.375 C2.68945312 9.1690625 2.75390625 9.963125 2.8203125 10.78125 C2.96058587 12.85028224 2.98758237 14.92625536 3 17 C2.34 17.66 1.68 18.32 1 19 C-0.65497356 15.69005287 -0.10084335 12.00877 -0.0625 8.375 C-0.05798828 7.57320313 -0.05347656 6.77140625 -0.04882812 5.9453125 C-0.03703168 3.96350994 -0.01909605 1.98174567 0 0 Z " fill="#242320" transform="translate(77,368)"/>
<path d="M0 0 C2.31 0.33 4.62 0.66 7 1 C6.67 1.66 6.34 2.32 6 3 C6.99 3.99 7.98 4.98 9 6 C7.375 6.75 7.375 6.75 5 7 C1.75 5.0625 1.75 5.0625 -1 3 C-0.67 2.01 -0.34 1.02 0 0 Z " fill="#151411" transform="translate(535,392)"/>
<path d="M0 0 C0 0.66 0 1.32 0 2 C0.99 2.33 1.98 2.66 3 3 C-0.08888522 5.05925681 -0.70935927 5.2390374 -4.1875 5.125 C-6.0746875 5.063125 -6.0746875 5.063125 -8 5 C-8 4.01 -8 3.02 -8 2 C-2.25 0 -2.25 0 0 0 Z " fill="#F5F1E8" transform="translate(552,330)"/>
<path d="M0 0 C3.89917223 0.57765515 6.01191265 2.53482794 9 5 C10.31138904 5.70885894 11.63777017 6.39456452 13 7 C13 7.66 13 8.32 13 9 C8.428755 8.88850622 6.27065025 7.63283701 3.125 4.5 C0 1.1991342 0 1.1991342 0 0 Z " fill="#F8F5EB" transform="translate(435,339)"/>
<path d="M0 0 C3.465 1.98 3.465 1.98 7 4 C7 5.32 7 6.64 7 8 C5.02 8.33 3.04 8.66 1 9 C1 8.01 1 7.02 1 6 C0.68578929 3.99690671 0.3548954 1.99628664 0 0 Z " fill="#151611" transform="translate(568,383)"/>
<path d="M0 0 C1.32 0.66 2.64 1.32 4 2 C-0.30769231 6.92307692 -0.30769231 6.92307692 -3.8125 7.3125 C-4.8953125 7.1578125 -4.8953125 7.1578125 -6 7 C-6 6.01 -6 5.02 -6 4 C-5.38125 3.896875 -4.7625 3.79375 -4.125 3.6875 C-1.63473516 3.12474627 -1.63473516 3.12474627 0 0 Z " fill="#EFECE3" transform="translate(473,341)"/>
<path d="M0 0 C0.33 0 0.66 0 1 0 C1.33 7.59 1.66 15.18 2 23 C-1.375 18.5 -1.375 18.5 -1.07421875 14.453125 C-1.01943359 13.60878906 -0.96464844 12.76445312 -0.90820312 11.89453125 C-0.83537109 11.02183594 -0.76253906 10.14914062 -0.6875 9.25 C-0.62626953 8.36183594 -0.56503906 7.47367187 -0.50195312 6.55859375 C-0.34905186 4.37092956 -0.18127554 2.18546558 0 0 Z " fill="#0A0805" transform="translate(565,360)"/>
<path d="M0 0 C-0.25 1.875 -0.25 1.875 -1 4 C-3.0625 5.25 -3.0625 5.25 -5 6 C-6.32 4.35 -7.64 2.7 -9 1 C-5.846632 0.29925156 -3.27275026 0 0 0 Z " fill="#252423" transform="translate(437,370)"/>
<path d="M0 0 C2.375 0.1875 2.375 0.1875 5 1 C6.3125 3.5625 6.3125 3.5625 7 6 C6.01 6 5.02 6 4 6 C4 5.34 4 4.68 4 4 C3.01 4.33 2.02 4.66 1 5 C0.34 4.01 -0.32 3.02 -1 2 C-0.67 1.34 -0.34 0.68 0 0 Z " fill="#F2EFE7" transform="translate(392,340)"/>
<path d="M0 0 C2.31 1.98 4.62 3.96 7 6 C6.34 6.66 5.68 7.32 5 8 C4.01 8 3.02 8 2 8 C0.23537317 4.91190305 0 3.76687864 0 0 Z " fill="#F7F5EF" transform="translate(424,368)"/>
<path d="M0 0 C0.66 0 1.32 0 2 0 C2.33 0.99 2.66 1.98 3 3 C1.68 4.32 0.36 5.64 -1 7 C-2.32 6.34 -3.64 5.68 -5 5 C-3.625 3.5 -3.625 3.5 -2 2 C-1.34 2 -0.68 2 0 2 C0 1.34 0 0.68 0 0 Z " fill="#12120F" transform="translate(501,353)"/>
<path d="M0 0 C2.62187494 1.04874998 3.79371361 1.64931313 5.25 4.125 C5.4975 4.74375 5.745 5.3625 6 6 C4.35 6 2.7 6 1 6 C-0.0625 4.125 -0.0625 4.125 -1 2 C-0.67 1.34 -0.34 0.68 0 0 Z " fill="#F4F4EB" transform="translate(400,346)"/>
<path d="M0 0 C2.64 0.33 5.28 0.66 8 1 C8 1.99 8 2.98 8 4 C5.08517222 4.80967438 3.53886783 5.21845993 0.6875 4.0625 C0.130625 3.711875 -0.42625 3.36125 -1 3 C-0.67 2.01 -0.34 1.02 0 0 Z " fill="#F3F0E7" transform="translate(424,329)"/>
<path d="M0 0 C0.66 0.33 1.32 0.66 2 1 C-0.97 3.475 -0.97 3.475 -4 6 C-4.66 5.67 -5.32 5.34 -6 5 C-6 4.34 -6 3.68 -6 3 C-6.66 2.67 -7.32 2.34 -8 2 C-6.865625 1.855625 -5.73125 1.71125 -4.5625 1.5625 C-1.19222799 1.38828522 -1.19222799 1.38828522 0 0 Z " fill="#11120F" transform="translate(619,386)"/>
<path d="M0 0 C2.97 0 5.94 0 9 0 C6 3 6 3 3.3125 3.1875 C2.1678125 3.0946875 2.1678125 3.0946875 1 3 C0.67 2.01 0.34 1.02 0 0 Z " fill="#F2F0E9" transform="translate(578,386)"/>
<path d="M0 0 C1.9955516 3.99110319 2.19546065 5.69986566 2 10 C1.01 10.33 0.02 10.66 -1 11 C-0.67 7.37 -0.34 3.74 0 0 Z " fill="#F6F0E9" transform="translate(345,332)"/>
<path d="M0 0 C3.3 0 6.6 0 10 0 C9 3 9 3 7.25 3.9375 C3.86494901 4.03152919 2.41207884 2.21107227 0 0 Z " fill="#25231F" transform="translate(552,334)"/>
<path d="M0 0 C0.33 0 0.66 0 1 0 C1 4.62 1 9.24 1 14 C0.01 14 -0.98 14 -2 14 C-1.67 13.01 -1.34 12.02 -1 11 C-0.77820215 9.10787263 -0.59385985 7.21115528 -0.4375 5.3125 C-0.35371094 4.31863281 -0.26992187 3.32476562 -0.18359375 2.30078125 C-0.12300781 1.54152344 -0.06242187 0.78226562 0 0 Z " fill="#FCF9F4" transform="translate(76,375)"/>
<path d="M0 0 C1.98 0 3.96 0 6 0 C6 0.99 6 1.98 6 3 C4.02 3.33 2.04 3.66 0 4 C0 2.68 0 1.36 0 0 Z " fill="#F5F0E5" transform="translate(639,331)"/>
<path d="M0 0 C2.97 0 5.94 0 9 0 C9 0.66 9 1.32 9 2 C6.36 2.33 3.72 2.66 1 3 C0.67 2.01 0.34 1.02 0 0 Z " fill="#E1DDD5" transform="translate(620,402)"/>
<path d="M0 0 C1.98 0.495 1.98 0.495 4 1 C4 2.32 4 3.64 4 5 C1.525 4.01 1.525 4.01 -1 3 C-0.67 2.01 -0.34 1.02 0 0 Z " fill="#F4F0E9" transform="translate(417,363)"/>
<path d="M0 0 C0.99 0.33 1.98 0.66 3 1 C2.27683594 1.61488281 2.27683594 1.61488281 1.5390625 2.2421875 C0.90742187 2.78101563 0.27578125 3.31984375 -0.375 3.875 C-1.00148438 4.40867187 -1.62796875 4.94234375 -2.2734375 5.4921875 C-3.55836651 6.61432007 -4.79371975 7.79371975 -6 9 C-6 6 -6 6 -4.6875 4.39453125 C-4.130625 3.87246094 -3.57375 3.35039062 -3 2.8125 C-2.443125 2.28269531 -1.88625 1.75289063 -1.3125 1.20703125 C-0.6628125 0.60955078 -0.6628125 0.60955078 0 0 Z " fill="#D9D7CF" transform="translate(523,337)"/>
<path d="M0 0 C2.97 0.495 2.97 0.495 6 1 C5.67 2.65 5.34 4.3 5 6 C3.2925002 4.71937515 1.62626404 3.38232443 0 2 C0 1.34 0 0.68 0 0 Z " fill="#211F1C" transform="translate(391,335)"/>
<path d="M0 0 C-0.66 0 -1.32 0 -2 0 C-2.12375 0.639375 -2.2475 1.27875 -2.375 1.9375 C-2.58125 2.618125 -2.7875 3.29875 -3 4 C-3.99 4.495 -3.99 4.495 -5 5 C-5.33 3.35 -5.66 1.7 -6 0 C-3.50907189 -1.24546405 -2.58919267 -0.7767578 0 0 Z " fill="#131413" transform="translate(624,350)"/>
<path d="M0 0 C1.38232443 1.62626404 2.71937515 3.2925002 4 5 C3.01 5.33 2.02 5.66 1 6 C-0.65 4.35 -2.3 2.7 -4 1 C-2 0 -2 0 0 0 Z " fill="#F2F2E9" transform="translate(653,336)"/>
<path d="M0 0 C1.32 0.66 2.64 1.32 4 2 C2.35 3.65 0.7 5.3 -1 7 C-0.67 4.69 -0.34 2.38 0 0 Z " fill="#262421" transform="translate(488,365)"/>
<path d="M0 0 C-1.44253657 3.36591866 -3.33264727 5.51047079 -6 8 C-5.6875 5.125 -5.6875 5.125 -5 2 C-2 0 -2 0 0 0 Z " fill="#F7F5EE" transform="translate(501,362)"/>
<path d="M0 0 C0.99 0.33 1.98 0.66 3 1 C2.67 1.66 2.34 2.32 2 3 C1.34 3 0.68 3 0 3 C-0.33 3.66 -0.66 4.32 -1 5 C-3.0625 5.625 -3.0625 5.625 -5 6 C-3.35 4.02 -1.7 2.04 0 0 Z " fill="#0E0C08" transform="translate(473,347)"/>
<path d="M0 0 C0.99 0.33 1.98 0.66 3 1 C3.33 2.98 3.66 4.96 4 7 C3.01 7.495 3.01 7.495 2 8 C0.74335022 5.09399739 0 3.20395416 0 0 Z " fill="#F0ECE4" transform="translate(296,332)"/>
<path d="M0 0 C0.66 0.33 1.32 0.66 2 1 C1.01 2.98 0.02 4.96 -1 7 C-1.66 7 -2.32 7 -3 7 C-2.38722388 4.03824877 -1.74627478 2.61941217 0 0 Z " fill="#141411" transform="translate(656,387)"/>
<path d="M0 0 C1.32 0 2.64 0 4 0 C3.34 1.32 2.68 2.64 2 4 C1.01 4 0.02 4 -1 4 C-0.67 2.68 -0.34 1.36 0 0 Z " fill="#E2E0D7" transform="translate(468,347)"/>
<path d="M0 0 C1.32 0.66 2.64 1.32 4 2 C3.01 2.99 2.02 3.98 1 5 C-0.32 4.34 -1.64 3.68 -3 3 C-2.01 2.01 -1.02 1.02 0 0 Z " fill="#F8F5EA" transform="translate(530,339)"/>
<path d="M0 0 C0.66 0 1.32 0 2 0 C1.67 0.99 1.34 1.98 1 3 C1.33 3.99 1.66 4.98 2 6 C1.01 6 0.02 6 -1 6 C-1.625 4.125 -1.625 4.125 -2 2 C-1.34 1.34 -0.68 0.68 0 0 Z " fill="#0B0C0B" transform="translate(398,336)"/>
</svg>
